<svg width="41" height="41" viewBox="0 0 41 41" fill="none" xmlns="http://www.w3.org/2000/svg">
<circle cx="20.5" cy="20.5" r="20" stroke="white"/>
<g clip-path="url(#clip0)">
<path d="M20.5033 16.7664C18.3738 16.7664 16.6562 18.5005 16.6562 20.6505C16.6562 22.8004 18.3738 24.5345 20.5033 24.5345C22.6328 24.5345 24.3504 22.8004 24.3504 20.6505C24.3504 18.5005 22.6328 16.7664 20.5033 16.7664ZM20.5033 23.1756C19.1272 23.1756 18.0022 22.0432 18.0022 20.6505C18.0022 19.2577 19.1238 18.1253 20.5033 18.1253C21.8828 18.1253 23.0044 19.2577 23.0044 20.6505C23.0044 22.0432 21.8794 23.1756 20.5033 23.1756ZM25.4051 16.6075C25.4051 17.1112 25.0033 17.5134 24.5078 17.5134C24.0089 17.5134 23.6104 17.1078 23.6104 16.6075C23.6104 16.1072 24.0122 15.7015 24.5078 15.7015C25.0033 15.7015 25.4051 16.1072 25.4051 16.6075ZM27.9531 17.527C27.8962 16.3134 27.6216 15.2384 26.741 14.3528C25.8638 13.4671 24.7991 13.1899 23.597 13.129C22.3582 13.0581 18.645 13.0581 17.4062 13.129C16.2075 13.1865 15.1428 13.4637 14.2622 14.3494C13.3816 15.235 13.1104 16.31 13.0502 17.5236C12.9799 18.7743 12.9799 22.5232 13.0502 23.774C13.1071 24.9875 13.3816 26.0625 14.2622 26.9482C15.1428 27.8338 16.2042 28.111 17.4062 28.1719C18.645 28.2429 22.3582 28.2429 23.597 28.1719C24.7991 28.1144 25.8638 27.8372 26.741 26.9482C27.6183 26.0625 27.8928 24.9875 27.9531 23.774C28.0234 22.5232 28.0234 18.7777 27.9531 17.527ZM26.3526 25.116C26.0915 25.7785 25.5859 26.289 24.9263 26.556C23.9386 26.9515 21.5948 26.8603 20.5033 26.8603C19.4118 26.8603 17.0647 26.9482 16.0803 26.556C15.4241 26.2924 14.9185 25.7819 14.654 25.116C14.2622 24.1188 14.3526 21.7525 14.3526 20.6505C14.3526 19.5484 14.2656 17.1788 14.654 16.1849C14.9151 15.5224 15.4207 15.0119 16.0803 14.7449C17.068 14.3494 19.4118 14.4406 20.5033 14.4406C21.5948 14.4406 23.9419 14.3528 24.9263 14.7449C25.5825 15.0086 26.0881 15.519 26.3526 16.1849C26.7444 17.1822 26.654 19.5484 26.654 20.6505C26.654 21.7525 26.7444 24.1221 26.3526 25.116Z" fill="white"/>
</g>
<defs>
<clipPath id="clip0">
<rect width="15" height="17.3077" fill="white" transform="translate(13 12)"/>
</clipPath>
</defs>
</svg>
