<svg width="41" height="41" viewBox="0 0 41 41" fill="none" xmlns="http://www.w3.org/2000/svg">
<circle cx="20.5" cy="20.5" r="20" stroke="white"/>
<path d="M26.4581 17.4448C26.4676 17.578 26.4676 17.7113 26.4676 17.8445C26.4676 21.9086 23.3744 26.5914 17.7208 26.5914C15.9791 26.5914 14.361 26.0869 13 25.2113C13.2475 25.2398 13.4854 25.2494 13.7424 25.2494C15.1795 25.2494 16.5025 24.764 17.559 23.9359C16.2075 23.9074 15.0749 23.0222 14.6846 21.8039C14.875 21.8325 15.0653 21.8515 15.2652 21.8515C15.5412 21.8515 15.8173 21.8134 16.0742 21.7468C14.6656 21.4613 13.6091 20.224 13.6091 18.7297V18.6916C14.0184 18.9201 14.4943 19.0628 14.9987 19.0818C14.1706 18.5298 13.6282 17.5875 13.6282 16.5216C13.6282 15.9505 13.7804 15.427 14.0469 14.9702C15.5603 16.8356 17.835 18.0539 20.3857 18.1872C20.3382 17.9587 20.3096 17.7208 20.3096 17.4829C20.3096 15.7887 21.6802 14.4086 23.3838 14.4086C24.269 14.4086 25.0685 14.7798 25.63 15.3794C26.3248 15.2462 26.991 14.9892 27.5812 14.6371C27.3527 15.3509 26.8673 15.9505 26.2296 16.3312C26.8483 16.2646 27.4479 16.0933 27.9999 15.8553C27.5812 16.4645 27.0577 17.0069 26.4581 17.4448Z" fill="white"/>
</svg>
